<svg xmlns="http://www.w3.org/2000/svg" viewBox="0 0 1920 1080"><g transform="
          rotate(0 960 540) 
          translate(-0 -0)
          scale(1)
        "><rect width="1920" height="1080" fill="rgb(171, 255, 228)"></rect><g transform="translate(0, 0)"><path fill="rgb(155, 245, 217)" fill-opacity="1" d="M0,96.257L45.714,95.475C91.429,94.693,182.857,93.128,274.286,92.886C365.714,92.643,457.143,93.723,548.571,93.844C640,93.965,731.429,93.129,822.857,82.686C914.286,72.244,1005.714,52.195,1097.143,50.502C1188.571,48.809,1280,65.471,1371.429,60.364C1462.857,55.258,1554.286,28.382,1645.714,26.858C1737.143,25.334,1828.571,49.161,1874.286,61.075L1920,72.988L1920,1080L1874.286,1080C1828.571,1080,1737.143,1080,1645.714,1080C1554.286,1080,1462.857,1080,1371.429,1080C1280,1080,1188.571,1080,1097.143,1080C1005.714,1080,914.286,1080,822.857,1080C731.429,1080,640,1080,548.571,1080C457.143,1080,365.714,1080,274.286,1080C182.857,1080,91.429,1080,45.714,1080L0,1080Z"></path></g><g transform="translate(0, 98.18181818181819)"><path fill="rgb(140, 235, 207)" fill-opacity="1" d="M0,37.116L45.714,32.027C91.429,26.938,182.857,16.761,274.286,22.014C365.714,27.268,457.143,47.953,548.571,51.683C640,55.413,731.429,42.187,822.857,35.567C914.286,28.948,1005.714,28.934,1097.143,38.529C1188.571,48.125,1280,67.33,1371.429,77.645C1462.857,87.959,1554.286,89.383,1645.714,77.639C1737.143,65.894,1828.571,40.981,1874.286,28.524L1920,16.068L1920,981.818L1874.286,981.818C1828.571,981.818,1737.143,981.818,1645.714,981.818C1554.286,981.818,1462.857,981.818,1371.429,981.818C1280,981.818,1188.571,981.818,1097.143,981.818C1005.714,981.818,914.286,981.818,822.857,981.818C731.429,981.818,640,981.818,548.571,981.818C457.143,981.818,365.714,981.818,274.286,981.818C182.857,981.818,91.429,981.818,45.714,981.818L0,981.818Z"></path></g><g transform="translate(0, 196.36363636363637)"><path fill="rgb(124, 224, 196)" fill-opacity="1" d="M0,29.215L45.714,36.629C91.429,44.044,182.857,58.872,274.286,69.363C365.714,79.853,457.143,86.005,548.571,81.958C640,77.912,731.429,63.669,822.857,49.176C914.286,34.684,1005.714,19.943,1097.143,11.827C1188.571,3.711,1280,2.22,1371.429,11.203C1462.857,20.186,1554.286,39.643,1645.714,45.759C1737.143,51.874,1828.571,44.649,1874.286,41.036L1920,37.424L1920,883.636L1874.286,883.636C1828.571,883.636,1737.143,883.636,1645.714,883.636C1554.286,883.636,1462.857,883.636,1371.429,883.636C1280,883.636,1188.571,883.636,1097.143,883.636C1005.714,883.636,914.286,883.636,822.857,883.636C731.429,883.636,640,883.636,548.571,883.636C457.143,883.636,365.714,883.636,274.286,883.636C182.857,883.636,91.429,883.636,45.714,883.636L0,883.636Z"></path></g><g transform="translate(0, 294.5454545454545)"><path fill="rgb(109, 214, 186)" fill-opacity="1" d="M0,14.041L45.714,15.809C91.429,17.577,182.857,21.112,274.286,23.62C365.714,26.128,457.143,27.609,548.571,36.288C640,44.967,731.429,60.846,822.857,71.659C914.286,82.472,1005.714,88.221,1097.143,91.669C1188.571,95.117,1280,96.264,1371.429,89.625C1462.857,82.985,1554.286,68.558,1645.714,57.08C1737.143,45.602,1828.571,37.073,1874.286,32.808L1920,28.543L1920,785.455L1874.286,785.455C1828.571,785.455,1737.143,785.455,1645.714,785.455C1554.286,785.455,1462.857,785.455,1371.429,785.455C1280,785.455,1188.571,785.455,1097.143,785.455C1005.714,785.455,914.286,785.455,822.857,785.455C731.429,785.455,640,785.455,548.571,785.455C457.143,785.455,365.714,785.455,274.286,785.455C182.857,785.455,91.429,785.455,45.714,785.455L0,785.455Z"></path></g><g transform="translate(0, 392.72727272727275)"><path fill="rgb(93, 204, 175)" fill-opacity="1" d="M0,9.465L45.714,22.04C91.429,34.616,182.857,59.767,274.286,74.227C365.714,88.688,457.143,92.458,548.571,94.477C640,96.496,731.429,96.763,822.857,91.168C914.286,85.572,1005.714,74.114,1097.143,66.959C1188.571,59.804,1280,56.952,1371.429,51.125C1462.857,45.298,1554.286,36.495,1645.714,43.448C1737.143,50.401,1828.571,73.109,1874.286,84.463L1920,95.817L1920,687.273L1874.286,687.273C1828.571,687.273,1737.143,687.273,1645.714,687.273C1554.286,687.273,1462.857,687.273,1371.429,687.273C1280,687.273,1188.571,687.273,1097.143,687.273C1005.714,687.273,914.286,687.273,822.857,687.273C731.429,687.273,640,687.273,548.571,687.273C457.143,687.273,365.714,687.273,274.286,687.273C182.857,687.273,91.429,687.273,45.714,687.273L0,687.273Z"></path></g><g transform="translate(0, 490.9090909090909)"><path fill="rgb(78, 194, 165)" fill-opacity="1" d="M0,84.511L45.714,85.324C91.429,86.137,182.857,87.763,274.286,85.876C365.714,83.99,457.143,78.592,548.571,65.124C640,51.657,731.429,30.121,822.857,32.7C914.286,35.279,1005.714,61.973,1097.143,68.038C1188.571,74.103,1280,59.538,1371.429,47.154C1462.857,34.769,1554.286,24.564,1645.714,24.354C1737.143,24.144,1828.571,33.928,1874.286,38.82L1920,43.712L1920,589.091L1874.286,589.091C1828.571,589.091,1737.143,589.091,1645.714,589.091C1554.286,589.091,1462.857,589.091,1371.429,589.091C1280,589.091,1188.571,589.091,1097.143,589.091C1005.714,589.091,914.286,589.091,822.857,589.091C731.429,589.091,640,589.091,548.571,589.091C457.143,589.091,365.714,589.091,274.286,589.091C182.857,589.091,91.429,589.091,45.714,589.091L0,589.091Z"></path></g><g transform="translate(0, 589.090909090909)"><path fill="rgb(62, 184, 154)" fill-opacity="1" d="M0,96.164L45.714,88.471C91.429,80.778,182.857,65.391,274.286,56.324C365.714,47.256,457.143,44.509,548.571,37.208C640,29.907,731.429,18.053,822.857,11.985C914.286,5.917,1005.714,5.636,1097.143,10.974C1188.571,16.311,1280,27.267,1371.429,42.116C1462.857,56.964,1554.286,75.705,1645.714,82.059C1737.143,88.414,1828.571,82.382,1874.286,79.367L1920,76.351L1920,490.909L1874.286,490.909C1828.571,490.909,1737.143,490.909,1645.714,490.909C1554.286,490.909,1462.857,490.909,1371.429,490.909C1280,490.909,1188.571,490.909,1097.143,490.909C1005.714,490.909,914.286,490.909,822.857,490.909C731.429,490.909,640,490.909,548.571,490.909C457.143,490.909,365.714,490.909,274.286,490.909C182.857,490.909,91.429,490.909,45.714,490.909L0,490.909Z"></path></g><g transform="translate(0, 687.2727272727273)"><path fill="rgb(47, 174, 144)" fill-opacity="1" d="M0,13.415L45.714,26.485C91.429,39.556,182.857,65.697,274.286,69.781C365.714,73.864,457.143,55.89,548.571,51.677C640,47.465,731.429,57.014,822.857,57.602C914.286,58.19,1005.714,49.818,1097.143,50.801C1188.571,51.785,1280,62.124,1371.429,67.154C1462.857,72.183,1554.286,71.903,1645.714,67.079C1737.143,62.255,1828.571,52.887,1874.286,48.203L1920,43.52L1920,392.727L1874.286,392.727C1828.571,392.727,1737.143,392.727,1645.714,392.727C1554.286,392.727,1462.857,392.727,1371.429,392.727C1280,392.727,1188.571,392.727,1097.143,392.727C1005.714,392.727,914.286,392.727,822.857,392.727C731.429,392.727,640,392.727,548.571,392.727C457.143,392.727,365.714,392.727,274.286,392.727C182.857,392.727,91.429,392.727,45.714,392.727L0,392.727Z"></path></g><g transform="translate(0, 785.4545454545455)"><path fill="rgb(31, 163, 133)" fill-opacity="1" d="M0,55.404L45.714,55.359C91.429,55.315,182.857,55.226,274.286,54.263C365.714,53.3,457.143,51.461,548.571,49.848C640,48.235,731.429,46.847,822.857,40.243C914.286,33.639,1005.714,21.82,1097.143,14.761C1188.571,7.703,1280,5.407,1371.429,8.686C1462.857,11.965,1554.286,20.821,1645.714,26.388C1737.143,31.954,1828.571,34.233,1874.286,35.372L1920,36.512L1920,294.545L1874.286,294.545C1828.571,294.545,1737.143,294.545,1645.714,294.545C1554.286,294.545,1462.857,294.545,1371.429,294.545C1280,294.545,1188.571,294.545,1097.143,294.545C1005.714,294.545,914.286,294.545,822.857,294.545C731.429,294.545,640,294.545,548.571,294.545C457.143,294.545,365.714,294.545,274.286,294.545C182.857,294.545,91.429,294.545,45.714,294.545L0,294.545Z"></path></g><g transform="translate(0, 883.6363636363637)"><path fill="rgb(16, 153, 123)" fill-opacity="1" d="M0,32.774L45.714,36.307C91.429,39.841,182.857,46.907,274.286,51.999C365.714,57.091,457.143,60.209,548.571,65.089C640,69.97,731.429,76.613,822.857,75.479C914.286,74.344,1005.714,65.432,1097.143,56.216C1188.571,47,1280,37.481,1371.429,37.718C1462.857,37.955,1554.286,47.949,1645.714,46.362C1737.143,44.774,1828.571,31.605,1874.286,25.021L1920,18.436L1920,196.364L1874.286,196.364C1828.571,196.364,1737.143,196.364,1645.714,196.364C1554.286,196.364,1462.857,196.364,1371.429,196.364C1280,196.364,1188.571,196.364,1097.143,196.364C1005.714,196.364,914.286,196.364,822.857,196.364C731.429,196.364,640,196.364,548.571,196.364C457.143,196.364,365.714,196.364,274.286,196.364C182.857,196.364,91.429,196.364,45.714,196.364L0,196.364Z"></path></g><g transform="translate(0, 981.8181818181818)"><path fill="rgb(0, 143, 112)" fill-opacity="1" d="M0,79.387L45.714,73.217C91.429,67.047,182.857,54.706,274.286,57.455C365.714,60.204,457.143,78.044,548.571,85.563C640,93.081,731.429,90.279,822.857,82.413C914.286,74.546,1005.714,61.615,1097.143,60.822C1188.571,60.029,1280,71.373,1371.429,70.441C1462.857,69.509,1554.286,56.301,1645.714,50.87C1737.143,45.439,1828.571,47.785,1874.286,48.957L1920,50.13L1920,98.182L1874.286,98.182C1828.571,98.182,1737.143,98.182,1645.714,98.182C1554.286,98.182,1462.857,98.182,1371.429,98.182C1280,98.182,1188.571,98.182,1097.143,98.182C1005.714,98.182,914.286,98.182,822.857,98.182C731.429,98.182,640,98.182,548.571,98.182C457.143,98.182,365.714,98.182,274.286,98.182C182.857,98.182,91.429,98.182,45.714,98.182L0,98.182Z"></path></g></g></svg>